<svg width="12" height="14" viewBox="0 0 12 14" fill="none" xmlns="http://www.w3.org/2000/svg">
<path d="M11.015 8.46013C11.4055 8.0696 11.4055 7.43644 11.015 7.04591C10.6244 6.65539 9.99128 6.65539 9.60075 7.04591L11.015 8.46013ZM5.7532 12.3077L5.0461 13.0148C5.43662 13.4053 6.06979 13.4053 6.46031 13.0148L5.7532 12.3077ZM1.90566 7.04591C1.51513 6.65539 0.881966 6.65539 0.491442 7.04591C0.100917 7.43644 0.100917 8.0696 0.491442 8.46013L1.90566 7.04591ZM9.60075 7.04591L5.0461 11.6006L6.46031 13.0148L11.015 8.46013L9.60075 7.04591ZM6.46031 11.6006L1.90566 7.04591L0.491442 8.46013L5.0461 13.0148L6.46031 11.6006Z" fill="white"/>
<path d="M11.015 2.3994C11.4055 2.00887 11.4055 1.37571 11.015 0.985185C10.6244 0.59466 9.99128 0.59466 9.60075 0.985184L11.015 2.3994ZM5.7532 6.24695L5.0461 6.95405C5.43662 7.34458 6.06979 7.34458 6.46031 6.95405L5.7532 6.24695ZM1.90566 0.985184C1.51513 0.59466 0.881967 0.59466 0.491442 0.985184C0.100918 1.37571 0.100918 2.00887 0.491442 2.3994L1.90566 0.985184ZM9.60075 0.985184L5.0461 5.53984L6.46031 6.95405L11.015 2.3994L9.60075 0.985184ZM6.46031 5.53984L1.90566 0.985184L0.491442 2.3994L5.0461 6.95405L6.46031 5.53984Z" fill="white"/>
</svg>