<svg xmlns="http://www.w3.org/2000/svg" width="25" height="25" viewBox="0 0 25 25">
    <defs>
        <style>
            .cls-1,.cls-3{fill:none}.cls-2{clip-path:url(#clip-path)}.cls-3,.cls-4{stroke:#fff}.cls-3{stroke-linecap:round;stroke-linejoin:round}.cls-4{fill:#fff;stroke-width:.35px}
        </style>
        <clipPath id="clip-path">
            <path d="M0 0h15.597v24.288H0z" class="cls-1"/>
        </clipPath>
    </defs>
    <g id="icon-login" transform="translate(-1067 -56)">
        <g id="login" class="cls-2" transform="translate(1071.84 56.5)">
            <g id="Group_6451" data-name="Group 6451" transform="translate(-974.84 -64.447)">
                <path id="Path_6731" d="M32.941 14.24c0 1.954-1.585 5.373-3.545 5.373S25.85 16.2 25.85 14.24a3.545 3.545 0 0 1 7.085 0z" class="cls-3" data-name="Path 6731" transform="translate(953.243 54.109)"/>
                <path id="Path_6732" d="M19.34 37.978a7.3 7.3 0 1 1 14.6 0" class="cls-3" data-name="Path 6732" transform="translate(956 45.706)"/>
                <g id="iconfinder_19_Key_lock_unlock_3104964" transform="rotate(-44.03 592.02 -1167.432)">
                    <g id="XMLID_3048_">
                        <path id="XMLID_19348_" d="M6.515 7.046c-.063 0-.125-.039-.207-.122-.749-.738-1.5-1.5-2.227-2.231-.3-.306-.618-.624-.927-.935-.028-.028-.057-.06-.087-.093a.65.65 0 0 0-.333-.25.951.951 0 0 0-.389.071c-.052.016-.1.032-.148.044a1.673 1.673 0 0 1-.649.038A1.8 1.8 0 0 1 .524 3.06a1.793 1.793 0 0 1 0-2.534 1.791 1.791 0 0 1 2.534 0 1.815 1.815 0 0 1 .49 1.618c-.008.038-.014.071-.022.1a.4.4 0 0 0 .126.483c.376.376.771.747 1.153 1.107.444.417.9.85 1.338 1.294a2.735 2.735 0 0 1 .24-.278c.095-.1.2-.2.306-.3.011-.009.022-.021.035-.03a.707.707 0 0 1 .43-.237.542.542 0 0 1 .34.156c.177.156.406.39.343.611a.567.567 0 0 1-.149.213.825.825 0 0 0-.058.065c-.07.085-.145.167-.216.246l-.027.03c-.126.139-.258.278-.39.411l.079.066c.1.085.133.112.142.139.039.125-.06.256-.126.341l-.011.014a2.266 2.266 0 0 1-.385.376.313.313 0 0 1-.181.095zM2.682 3.318h.062a.713.713 0 0 1 .392.281c.028.033.057.063.082.09.31.311.624.629.927.935.727.735 1.479 1.493 2.227 2.231.12.118.147.122.265.025a2.142 2.142 0 0 0 .37-.36l.011-.014c.054-.07.133-.174.112-.251a1.225 1.225 0 0 0-.112-.1c-.109-.09-.13-.109-.131-.139a.054.054 0 0 1 .013-.033c.142-.142.281-.289.417-.438l.027-.03c.071-.079.145-.161.215-.243.019-.024.041-.046.063-.07a.477.477 0 0 0 .125-.174c.054-.19-.223-.433-.314-.513a.462.462 0 0 0-.278-.133.645.645 0 0 0-.367.213.555.555 0 0 0-.035.032c-.107.095-.207.2-.3.292a2.842 2.842 0 0 0-.264.313.043.043 0 0 1-.035.019.05.05 0 0 1-.038-.014c-.445-.457-.918-.9-1.374-1.33-.382-.36-.777-.731-1.156-1.109a.483.483 0 0 1-.152-.57l.021-.1A1.721 1.721 0 0 0 2.989.594a1.7 1.7 0 1 0-1.43 2.882 1.587 1.587 0 0 0 .615-.036c.044-.011.092-.027.142-.043a1.217 1.217 0 0 1 .366-.079z" class="cls-4"/>
                    </g>
                    <g id="XMLID_2230_" transform="translate(.748 .776)">
                        <path id="XMLID_19345_" d="M1.025 2.049A1.024 1.024 0 0 1 .3.3a1.026 1.026 0 0 1 1.45 0 1.024 1.024 0 0 1-.725 1.749zm0-1.954a.929.929 0 1 0 .657.272.928.928 0 0 0-.657-.272z" class="cls-4"/>
                    </g>
                </g>
            </g>
        </g>
        <path id="Path_7333" d="M0 0h25v25H0z" class="cls-1" data-name="Path 7333" transform="translate(1067 56)"/>
    </g>
</svg>
